<?xml version="1.0" encoding="UTF-8"?>
<svg
  id="Layer_2"
  data-name="Layer 2"
  xmlns="http://www.w3.org/2000/svg"
  viewBox="0 0 133.04 96.78"
>
  <defs>
    <style>
      .cls-1 {
        fill: #ee6b95;
      }

      .cls-1,
      .cls-2 {
        stroke-width: 0px;
      }

      .cls-2 {
        fill: #162d70;
      }
    </style>
  </defs>
  <g id="Layer_1-2" data-name="Layer 1">
    <g>
      <path
        class="cls-2"
        d="M90.27,34.95c-2.81-6.61-9.36-11.25-16.99-11.25-10.19,0-18.45,8.26-18.45,18.45,0,2.54.51,4.96,1.44,7.17l-7.9,4.88c-1.01-.56-2.17-.87-3.4-.87-.97,0-1.89.2-2.73.55l-13.39-13.29c.37-.86.58-1.8.58-2.8,0-3.89-3.15-7.04-7.04-7.04s-7.04,3.15-7.04,7.04c0,1.01.21,1.97.6,2.84L0,56.79v6.68l19.34-19.34c.92.44,1.96.69,3.05.69,1.16,0,2.25-.28,3.22-.78l13.06,13.18c-.47.95-.74,2.01-.74,3.14,0,3.89,3.15,7.04,7.04,7.04s7.04-3.15,7.04-7.04c0-.61-.08-1.2-.22-1.77h0s7.4-4.53,7.4-4.53c3.39,4,8.44,6.54,14.09,6.54s11.07-2.73,14.45-6.98c.66-.62,1.08-1.5,1.08-2.47,0-1.87-1.52-3.39-3.39-3.39-1.26,0-2.36.69-2.94,1.71h0s0,0,0,0c-2.15,2.7-5.47,4.44-9.2,4.44-3.23,0-6.15-1.3-8.27-3.4l25.33-15.5s-.04-.04-.07-.06ZM22.39,40.89c-1.72,0-3.11-1.39-3.11-3.11s1.39-3.11,3.11-3.11,3.11,1.39,3.11,3.11-1.39,3.11-3.11,3.11ZM44.97,63.47c-1.72,0-3.11-1.39-3.11-3.11s1.39-3.11,3.11-3.11,3.11,1.39,3.11,3.11-1.39,3.11-3.11,3.11ZM62.08,45.73c-.36-1.13-.56-2.33-.56-3.58,0-6.49,5.26-11.76,11.76-11.76,3.2,0,6.1,1.28,8.21,3.35l-19.41,11.99Z"
      />
      <path
        class="cls-1"
        d="M114.37,6.08c-.54.01-.82.66-.46,1.06l3.74,4.14-19.48,12.13c-5.73-7.89-15.02-13.02-25.52-13.02-17.4,0-31.51,14.11-31.51,31.51,0,2.47.28,4.87.82,7.17.95-.25,1.94-.38,2.97-.38,1.43,0,2.8.26,4.06.73-.75-2.37-1.16-4.9-1.16-7.52,0-13.71,11.11-24.82,24.82-24.82,10.16,0,18.89,6.11,22.74,14.85l5.74-3.54s0,0,0,0l19.66-12.13,2.41,5.66c.21.49.89.52,1.15.05l8.7-16.25-18.67.38Z"
      />
      <path
        class="cls-1"
        d="M120.12,79.69l-12.63-12.63c-1.56-1.56-3.75-2.09-5.74-1.61l-4.21-4.21c4.16-5.34,6.63-12.05,6.63-19.34,0-2.69-.44-5.7-1.08-8.19l-6.02,3.69c.27,1.46.41,2.97.41,4.51,0,13.71-11.11,24.82-24.82,24.82-6.16,0-11.79-2.24-16.13-5.95-.1,2.49-.98,4.77-2.41,6.62,5.2,3.79,11.61,6.03,18.54,6.03,7.47,0,14.33-2.6,19.73-6.95l4.01,4.01c-.69,2.11-.2,4.51,1.48,6.19l12.63,12.63c2.37,2.37,6.22,2.37,8.6,0l1.01-1.01c2.37-2.37,2.37-6.22,0-8.6Z"
      />
      <g>
        <path
          class="cls-2"
          d="M41.86,78.41h-1.77l-1.36,1.12-8.3,6.82v-7.94h-9.93c-8.59,0-15.57-6.99-15.57-15.57V20.51c0-8.59,6.99-15.57,15.57-15.57h74.58c5.05,0,9.55,2.42,12.4,6.16l4.22-2.6c-3.73-5.15-9.78-8.5-16.62-8.5H20.51C9.18,0,0,9.18,0,20.51v42.33c0,11.32,9.18,20.51,20.51,20.51h4.99v13.44l16.37-13.44h53.22c1.53,0,3.02-.17,4.45-.49l-4.45-4.45h-53.22Z"
        />
        <path
          class="cls-2"
          d="M110.65,29.1v33.73c0,.51-.03,1.02-.08,1.52l4.2,4.2c.53-1.82.81-3.74.81-5.72V26.09l-4.93,3.01Z"
        />
      </g>
    </g>
  </g>
</svg>
